<?xml version="1.0" encoding="UTF-8" standalone="no"?>
<!-- Created with Inkscape (http://www.inkscape.org/) -->

<svg
   width="71.381538mm"
   height="71.381866mm"
   viewBox="0 0 71.381538 71.381866"
   version="1.1"
   id="svg5"
   sodipodi:docname="canvas.svg"
   inkscape:version="1.2 (dc2aedaf03, 2022-05-15)"
   xmlns:inkscape="http://www.inkscape.org/namespaces/inkscape"
   xmlns:sodipodi="http://sodipodi.sourceforge.net/DTD/sodipodi-0.dtd"
   xmlns="http://www.w3.org/2000/svg"
   xmlns:svg="http://www.w3.org/2000/svg">
  <sodipodi:namedview
     id="namedview44"
     pagecolor="#505050"
     bordercolor="#ffffff"
     borderopacity="1"
     inkscape:showpageshadow="0"
     inkscape:pageopacity="0"
     inkscape:pagecheckerboard="1"
     inkscape:deskcolor="#505050"
     inkscape:document-units="mm"
     showgrid="false"
     inkscape:zoom="1.7495106"
     inkscape:cx="120.60516"
     inkscape:cy="168.90438"
     inkscape:current-layer="layer1" />
  <defs
     id="defs2" />
  <g
     id="layer1"
     transform="translate(-385.42547,-128.96594)">
    <g
       id="g39010"
       style="fill:#1a1c2c;fill-opacity:1;stroke:#1a1c2c;stroke-opacity:1">
      <path
         style="fill:#1a1c2c;stroke:#1a1c2c;stroke-width:5;stroke-linecap:butt;stroke-linejoin:miter;stroke-miterlimit:4;stroke-dasharray:none;stroke-opacity:1;fill-opacity:1"
         d="m 394.09553,191.67772 -6.05417,-55.18302 4.9126,-4.91286 55.18343,6.05413 6.05374,55.18306 -4.91249,4.91288 z"
         id="path36797" />
      <path
         style="fill:#1a1c2c;fill-opacity:1;stroke:#1a1c2c;stroke-width:0.264583px;stroke-linecap:butt;stroke-linejoin:miter;stroke-opacity:1"
         d="m 405.20175,143.82927 33.10983,3.63246 1.21086,11.03663 11.03664,1.21081 0.62029,10.9718 -10.44614,-1.14601 1.21078,11.03658 -33.1098,-3.63247 z"
         id="path37149" />
    </g>
    <g
       id="g39006">
      <g
         id="g38966">
        <path
           style="fill:#257179;fill-opacity:1;stroke:none;stroke-width:0.311891px;stroke-linecap:butt;stroke-linejoin:miter;stroke-opacity:1"
           d="m 430.90744,179.36073 11.03657,1.21081 1.21088,11.03663 -11.03665,-1.21083 z"
           id="path2145-3" />
        <path
           style="fill:#214a6a;fill-opacity:1;stroke:none;stroke-width:0.311891px;stroke-linecap:butt;stroke-linejoin:miter;stroke-opacity:1"
           d="m 443.15489,191.60817 -11.03663,-1.2108 -4.91291,4.91291 11.03663,1.21081 z"
           id="path1412-1" />
      </g>
      <g
         id="g38962">
        <path
           style="fill:#38b764;fill-opacity:1;stroke:none;stroke-width:0.311891px;stroke-linecap:butt;stroke-linejoin:miter;stroke-opacity:1"
           d="m 419.8708,178.14991 11.03656,1.21079 1.21089,11.03662 -11.03663,-1.21081 z"
           id="path2143-8" />
        <path
           style="fill:#2c8f58;fill-opacity:1;stroke:none;stroke-width:0.311891px;stroke-linecap:butt;stroke-linejoin:miter;stroke-opacity:1"
           d="m 432.11827,190.39736 -11.03661,-1.21082 -4.91289,4.9129 11.03662,1.21082 z"
           id="path1414-1" />
      </g>
      <g
         id="g38954">
        <path
           style="fill:#ffcd75;fill-opacity:1;stroke:none;stroke-width:0.311891px;stroke-linecap:butt;stroke-linejoin:miter;stroke-opacity:1"
           d="m 397.7976,175.72828 11.03662,1.21079 1.21082,11.03661 -11.03663,-1.21083 z"
           id="path2141-8" />
        <path
           style="fill:#dd8265;fill-opacity:1;stroke:none;stroke-width:0.311891px;stroke-linecap:butt;stroke-linejoin:miter;stroke-opacity:1"
           d="m 397.7976,175.72828 1.21081,11.03657 -4.91289,4.91287 -1.21083,-11.03655 z"
           id="path1410-5" />
        <path
           style="fill:#a8534d;fill-opacity:1;stroke:none;stroke-width:0.311891px;stroke-linecap:butt;stroke-linejoin:miter;stroke-opacity:1"
           d="m 410.04505,187.97566 -11.03664,-1.21081 -4.91289,4.91291 11.03658,1.21084 z"
           id="path1418-3" />
      </g>
      <g
         id="g38958">
        <path
           style="fill:#4f9b4c;fill-opacity:1;stroke:none;stroke-width:0.311891px;stroke-linecap:butt;stroke-linejoin:miter;stroke-opacity:1"
           d="m 421.0817,189.18655 -11.03661,-1.21082 -4.91289,4.91291 11.03657,1.2108 z"
           id="path1416-0" />
        <path
           style="fill:#a7f070;fill-opacity:1;stroke:none;stroke-width:0.311891px;stroke-linecap:butt;stroke-linejoin:miter;stroke-opacity:1"
           d="m 408.83424,176.93908 11.03663,1.21082 1.21079,11.03664 -11.03662,-1.21086 z"
           id="path1422-5" />
      </g>
      <g
         id="g38970">
        <path
           style="fill:#29366f;fill-opacity:1;stroke:none;stroke-width:0.311891px;stroke-linecap:butt;stroke-linejoin:miter;stroke-opacity:1"
           d="m 441.94409,180.57155 11.03661,1.21085 1.21081,11.03663 -11.03661,-1.21086 z"
           id="path2147-9" />
        <path
           style="fill:#232a5e;fill-opacity:1;stroke:none;stroke-width:0.311891px;stroke-linecap:butt;stroke-linejoin:miter;stroke-opacity:1"
           d="m 454.19151,192.81903 -11.03658,-1.21086 -4.91289,4.91294 11.03662,1.2108 z"
           id="path969-0" />
      </g>
      <g
         id="g38949">
        <path
           style="fill:#ef7d57;fill-opacity:1;stroke:none;stroke-width:0.311891px;stroke-linecap:butt;stroke-linejoin:miter;stroke-opacity:1"
           d="m 408.83422,176.93907 -1.21083,-11.03662 -11.03662,-1.21084 1.21083,11.03667 z"
           id="path1131-13" />
      </g>
      <g
         id="g38938">
        <path
           style="fill:#1a1c2c;fill-opacity:1;stroke:none;stroke-width:0.311891px;stroke-linecap:butt;stroke-linejoin:miter;stroke-opacity:1"
           d="m 405.20174,143.82922 -1.21084,-11.03661 -11.03662,-1.2108 1.21085,11.03662 z"
           id="path1135-2" />
        <path
           style="fill:#1a1c2c;fill-opacity:1;stroke:none;stroke-width:0.311891px;stroke-linecap:butt;stroke-linejoin:miter;stroke-opacity:1"
           d="m 392.95428,131.58181 1.21079,11.0366 -4.9129,4.91284 -1.21081,-11.03656 z"
           id="path1141-1" />
      </g>
      <g
         id="g38942">
        <path
           style="fill:#5d275d;fill-opacity:1;stroke:none;stroke-width:0.311891px;stroke-linecap:butt;stroke-linejoin:miter;stroke-opacity:1"
           d="m 406.41255,154.86585 -1.2108,-11.03658 -11.03662,-1.21084 1.2108,11.03661 z"
           id="path1133-47" />
        <path
           style="fill:#3e2353;fill-opacity:1;stroke:none;stroke-width:0.311891px;stroke-linecap:butt;stroke-linejoin:miter;stroke-opacity:1"
           d="m 394.16509,142.61836 1.21081,11.03662 -4.91291,4.91287 -1.21079,-11.03655 z"
           id="path1143-6" />
      </g>
      <path
         style="fill:#c95149;fill-opacity:1;stroke:none;stroke-width:0.311891px;stroke-linecap:butt;stroke-linejoin:miter;stroke-opacity:1"
         d="m 396.58679,164.69164 1.21081,11.03664 -4.91291,4.91286 -1.21084,-11.03663 z"
         id="path1147-6" />
      <g
         id="g38946">
        <path
           style="fill:#882f40;fill-opacity:1;stroke:none;stroke-width:0.311891px;stroke-linecap:butt;stroke-linejoin:miter;stroke-opacity:1"
           d="m 395.37592,153.65497 1.21082,11.03663 -4.91292,4.91287 -1.21083,-11.03662 z"
           id="path1145-1" />
        <path
           style="fill:#b13e53;fill-opacity:1;stroke:none;stroke-width:0.311891px;stroke-linecap:butt;stroke-linejoin:miter;stroke-opacity:1"
           d="m 407.62337,165.90243 -1.2108,-11.03661 -11.03667,-1.21084 1.21087,11.03663 z"
           id="path1149-3" />
      </g>
      <path
         style="fill:#333c57;fill-opacity:1;stroke:none;stroke-width:0.311891px;stroke-linecap:butt;stroke-linejoin:miter;stroke-opacity:1"
         d="m 416.23835,145.04004 -1.21085,-11.03664 -11.03663,-1.2108 1.21087,11.03662 z"
         id="path2141-9-8" />
      <path
         style="fill:#566c86;fill-opacity:1;stroke:none;stroke-width:0.311891px;stroke-linecap:butt;stroke-linejoin:miter;stroke-opacity:1"
         d="m 415.0275,134.0034 11.03665,1.21087 1.21076,11.03664 -11.03656,-1.21087 z"
         id="path1131-6-5" />
      <path
         style="fill:#3b5dc9;fill-opacity:1;stroke:none;stroke-width:0.311891px;stroke-linecap:butt;stroke-linejoin:miter;stroke-opacity:1"
         d="m 452.9807,181.7824 -1.2108,-11.03665 -11.03667,-1.21079 1.21086,11.03659 z"
         id="path1131-1-6" />
      <path
         style="fill:#41a6f6;fill-opacity:1;stroke:none;stroke-width:0.311891px;stroke-linecap:butt;stroke-linejoin:miter;stroke-opacity:1"
         d="m 450.55908,159.70917 -1.21085,-11.03659 -11.03665,-1.21085 1.21087,11.03663 z"
         id="path1133-4-6" />
      <path
         style="fill:#73eff7;fill-opacity:1;stroke:none;stroke-width:0.311891px;stroke-linecap:butt;stroke-linejoin:miter;stroke-opacity:1"
         d="m 449.34822,148.67257 -1.21081,-11.03662 -11.03667,-1.21084 1.21085,11.03662 z"
         id="path1135-8-0" />
      <path
         style="fill:#94b0c2;fill-opacity:1;stroke:none;stroke-width:0.311891px;stroke-linecap:butt;stroke-linejoin:miter;stroke-opacity:1"
         d="m 426.06418,135.21428 11.03656,1.21078 1.21084,11.03667 -11.03667,-1.21082 z"
         id="path1149-1-7" />
    </g>
    <path
       id="path33708"
       style="fill:#ffffff;fill-opacity:0.180392;stroke:none;stroke-width:0.999999px;stroke-linecap:butt;stroke-linejoin:miter;stroke-opacity:1"
       d="m 1485.1797,497.31641 22.8828,208.5664 208.5645,22.88281 -9.1524,-83.42773 -9.7441,-1.06836 8.084,73.68164 -189.0762,-20.74609 -20.7422,-189.07227 189.0762,20.74414 8.082,73.67969 9.7461,1.06836 -9.1524,-83.42578 z"
       transform="scale(0.26458333)" />
  </g>
</svg>
