<?xml version="1.0" encoding="UTF-8" standalone="no"?>
<!-- Created with Inkscape (http://www.inkscape.org/) -->

<svg
   width="15.372573mm"
   height="15.372575mm"
   viewBox="0 0 15.372573 15.372575"
   version="1.1"
   id="svg5"
   xml:space="preserve"
   inkscape:version="1.2 (dc2aedaf03, 2022-05-15)"
   sodipodi:docname="logo.svg"
   xmlns:inkscape="http://www.inkscape.org/namespaces/inkscape"
   xmlns:sodipodi="http://sodipodi.sourceforge.net/DTD/sodipodi-0.dtd"
   xmlns="http://www.w3.org/2000/svg"
   xmlns:svg="http://www.w3.org/2000/svg"><sodipodi:namedview
     id="namedview7"
     pagecolor="#505050"
     bordercolor="#ffffff"
     borderopacity="1"
     inkscape:showpageshadow="0"
     inkscape:pageopacity="0"
     inkscape:pagecheckerboard="1"
     inkscape:deskcolor="#505050"
     inkscape:document-units="mm"
     showgrid="false"
     inkscape:zoom="6.8048817"
     inkscape:cx="32.991022"
     inkscape:cy="38.428295"
     inkscape:current-layer="layer1"
     showguides="true" /><defs
     id="defs2" /><g
     inkscape:label="Layer 1"
     inkscape:groupmode="layer"
     id="layer1"
     transform="translate(-6.4847962,-4.772116)"><path
       id="rect2662"
       style="fill:#f4f4f4;fill-opacity:1;fill-rule:evenodd;stroke:#f4f4f4;stroke-width:2.69875;stroke-dasharray:none;stroke-opacity:1"
       d="m 7.4847953,5.7721152 c 0,4.4575248 0,8.9150498 0,13.3725748 4.4575247,0 8.9150497,0 13.3725747,0 0,-1.78307 0,-3.566141 0,-5.349211 -0.891535,0 -1.78307,0 -2.674605,0 0,0.891535 0,1.78307 0,2.674606 -2.674455,0 -5.348909,0 -8.023364,0 0,-2.674606 0,-5.349212 0,-8.0238175 2.674455,0 5.348909,0 8.023364,0 0,0.8915352 0,1.7830705 0,2.6746055 0.891535,0 1.78307,0 2.674605,0 0,-1.7829193 0,-3.5658385 0,-5.3487578 -4.457525,0 -8.91505,0 -13.3725747,0 z" /><rect
       style="fill:#ffcd75;fill-opacity:1;fill-rule:evenodd;stroke:none;stroke-width:0;stroke-dasharray:none"
       id="rect2631"
       width="2.6745186"
       height="2.6745195"
       x="7.4846559"
       y="16.470049" /><rect
       style="fill:#5d275d;fill-opacity:1;fill-rule:evenodd;stroke:none;stroke-width:0;stroke-dasharray:none"
       id="rect2639"
       width="2.6745186"
       height="8.0235558"
       x="7.4846559"
       y="5.7719746" /><rect
       style="fill:#1a1c2c;fill-opacity:1;fill-rule:evenodd;stroke:none;stroke-width:0;stroke-dasharray:none"
       id="rect2061"
       width="8.0235558"
       height="2.6745186"
       x="7.4846549"
       y="5.7719746" /><rect
       style="fill:#333c57;fill-opacity:1;fill-rule:evenodd;stroke-width:0;stroke-dasharray:none;stroke:none"
       id="rect2477"
       width="2.6745186"
       height="2.6745186"
       x="10.159174"
       y="5.7719746" /><rect
       style="fill:#94b0c2;fill-opacity:1;fill-rule:evenodd;stroke-width:0;stroke-dasharray:none;stroke:none"
       id="rect2617"
       width="2.6745186"
       height="2.6745186"
       x="15.508211"
       y="5.7719746" /><rect
       style="fill:#73eff7;fill-opacity:1;fill-rule:evenodd;stroke-width:0;stroke-dasharray:none;stroke:none"
       id="rect2619"
       width="2.6745186"
       height="2.6745186"
       x="18.18273"
       y="5.7719746" /><rect
       style="fill:#41a6f6;fill-opacity:1;fill-rule:evenodd;stroke-width:0;stroke-dasharray:none;stroke:none"
       id="rect2621"
       width="2.6745186"
       height="2.6745186"
       x="18.18273"
       y="8.4464941" /><rect
       style="fill:#3b5dc9;fill-opacity:1;fill-rule:evenodd;stroke-width:0;stroke-dasharray:none;stroke:none"
       id="rect2625"
       width="2.6745186"
       height="5.3490372"
       x="18.18273"
       y="13.79553" /><rect
       style="fill:#566c86;fill-opacity:1;fill-rule:evenodd;stroke-width:0;stroke-dasharray:none;stroke:none"
       id="rect2629"
       width="2.6745186"
       height="2.6745186"
       x="12.833693"
       y="5.7719746" /><rect
       style="fill:#a7f070;fill-opacity:1;fill-rule:evenodd;stroke-width:0;stroke-dasharray:none;stroke:none"
       id="rect2633"
       width="2.6745186"
       height="2.6745186"
       x="10.159174"
       y="16.470049" /><rect
       style="fill:#257179;fill-opacity:1;fill-rule:evenodd;stroke:none;stroke-width:0;stroke-dasharray:none"
       id="rect2635"
       width="2.6745181"
       height="2.6745186"
       x="15.508211"
       y="16.470049" /><rect
       style="fill:#29366f;fill-opacity:1;fill-rule:evenodd;stroke:none;stroke-width:0;stroke-dasharray:none"
       id="rect2627"
       width="2.6745186"
       height="2.6745186"
       x="18.18273"
       y="16.470049" /><rect
       style="fill:#38b764;fill-opacity:1;fill-rule:evenodd;stroke-width:0;stroke-dasharray:none;stroke:none"
       id="rect2637"
       width="2.6745186"
       height="2.6745186"
       x="12.833693"
       y="16.470049" /><rect
       style="fill:#b13e53;fill-opacity:1;fill-rule:evenodd;stroke-width:0;stroke-dasharray:none;stroke:none"
       id="rect2641"
       width="2.6745186"
       height="2.6745186"
       x="7.4846559"
       y="11.121012" /><rect
       style="fill:#ef7d57;fill-opacity:1;fill-rule:evenodd;stroke-width:0;stroke-dasharray:none;stroke:none"
       id="rect2643"
       width="2.6745186"
       height="2.6745186"
       x="7.4846559"
       y="13.79553" /></g></svg>
